<svg width="18" height="20" viewBox="0 0 18 20" fill="none" xmlns="http://www.w3.org/2000/svg">
<path d="M8.7683 17.8842C8.21324 17.8842 7.67189 17.7833 7.16008 17.5842C1.76147 15.49 1.76147 13.6104 1.76147 12.9927C1.76147 11.6107 2.38295 7.6018 2.91486 4.58862L3.10557 3.59789H3.39559C5.285 3.59789 7.08301 2.99445 8.59496 1.85247L8.77592 1.71582L8.95718 1.85216C10.4524 2.97799 12.2985 3.59789 14.1559 3.59789H14.4067L14.4792 3.84883L14.6242 4.60291C15.1555 7.61205 15.7751 11.6113 15.7751 12.9927C15.7751 13.6104 15.7751 15.49 10.3759 17.5845C9.86442 17.7833 9.32337 17.8842 8.7683 17.8842Z" fill="#FFB630"/>
<path fill-rule="evenodd" clip-rule="evenodd" d="M15.5279 2.63511L15.9193 4.62239C16.1189 5.72452 17.1097 11.293 17.1097 13.1616C17.1097 15.4258 15.1167 17.2348 10.8381 18.8545C10.1782 19.1047 9.48188 19.2316 8.76822 19.2316C8.05425 19.2316 7.35759 19.1047 6.69707 18.8542C2.41913 17.2345 0.426758 15.4258 0.426758 13.1616C0.426758 11.293 1.41754 5.72452 1.61619 4.627L2.00855 2.63511H3.3197C5.27407 2.63511 7.13391 1.90087 8.55629 0.567309L8.75772 0.378601L9.27921 0.82056C10.6596 1.99061 12.4184 2.63511 14.2319 2.63511H15.5279ZM6.91705 18.2797C8.09722 18.7272 9.43957 18.7269 10.6182 18.28C14.6255 16.763 16.4918 15.1365 16.4918 13.1615C16.4918 11.3451 15.5091 5.82435 15.3123 4.73605L15.0194 3.24974H14.2319C12.2717 3.24974 10.3704 2.55299 8.87853 1.28828L8.77504 1.20068C7.26585 2.5241 5.33959 3.24974 3.31972 3.24974H2.51709L2.22328 4.74066C2.02741 5.82435 1.04466 11.3451 1.04466 13.1615C1.04466 15.1365 2.91068 16.763 6.91705 18.2797Z" fill="black"/>
<path fill-rule="evenodd" clip-rule="evenodd" d="M5.52418 6.63049L3.4314 9.40672L8.02414 14.8894C8.20858 15.1098 8.47984 15.2361 8.76808 15.2361C9.05632 15.2361 9.32758 15.1098 9.51201 14.8894L14.1048 9.40672L12.012 6.63049H5.52418ZM8.76843 13.7806L7.62998 9.70398H9.90658L8.76843 13.7806ZM11.3004 7.2453H9.32592L10.3133 8.81674L11.3004 7.2453ZM9.75581 9.08939H7.78136L8.76843 7.51794L9.75581 9.08939ZM6.23609 7.2453L7.22347 8.81674L8.21054 7.2453H6.23609ZM6.66632 9.08928H4.44317L5.65577 7.48096L6.66632 9.08928ZM13.0936 9.08928L11.881 7.48096L10.8705 9.08928H13.0936ZM4.4848 9.70398H6.98878L8.24093 14.1881L4.4848 9.70398ZM10.5478 9.70398L9.29564 14.1881L13.0518 9.70398H10.5478Z" fill="black"/>
</svg>
