<svg width="16" height="25" viewBox="0 0 16 25" fill="none" xmlns="http://www.w3.org/2000/svg">
<path d="M7.99998 24.8C5.53279 24.8 3.59998 23.7455 3.59998 22.4C3.59998 21.3012 4.88474 20.3721 6.79724 20.0877L6.91482 20.8793C5.48123 21.092 4.39998 21.7461 4.39998 22.4C4.39998 23.1568 5.8783 24 7.99998 24C10.1217 24 11.6 23.1568 11.6 22.4C11.6 21.7461 10.5187 21.092 9.08474 20.8783L9.20271 20.0867C11.1152 20.3725 12.4 21.3016 12.4 22.4C12.4 23.7455 10.4672 24.8 7.99998 24.8Z" fill="black"/>
<path d="M8 22.8C7.3377 22.8 6.78398 22.3248 6.6832 21.6703C6.25195 18.8699 4.96562 16.3312 2.9623 14.3283L2.34316 13.7092C0.832031 12.198 0 10.1889 0 8.05195V8C0 3.58887 3.58887 0 8 0C12.4111 0 16 3.58887 16 8V8.05195C16 10.1889 15.168 12.198 13.6568 13.7092L13.0377 14.3283C11.0344 16.3316 9.74805 18.8699 9.3168 21.6703C9.21602 22.3248 8.6623 22.8 8 22.8Z" fill="#FFB631"/>
<path fill-rule="evenodd" clip-rule="evenodd" d="M2.40002 8.00002C2.40002 11.0881 4.91194 13.6 8.00002 13.6C11.0881 13.6 13.6 11.0881 13.6 8.00002C13.6 4.91194 11.0881 2.40002 8.00002 2.40002C4.91194 2.40002 2.40002 4.91194 2.40002 8.00002ZM3.20002 8.00002C3.20002 5.35315 5.35315 3.20002 8.00002 3.20002C10.6469 3.20002 12.8 5.35315 12.8 8.00002C12.8 10.6469 10.6469 12.8 8.00002 12.8C5.35315 12.8 3.20002 10.6469 3.20002 8.00002Z" fill="black"/>
</svg>
